<?xml version="1.0" standalone="no"?>
<!DOCTYPE svg PUBLIC "-//W3C//DTD SVG 20010904//EN"
 "http://www.w3.org/TR/2001/REC-SVG-20010904/DTD/svg10.dtd">
<svg version="1.0" xmlns="http://www.w3.org/2000/svg"
 width="260.000000pt" height="260.000000pt" viewBox="0 0 260.000000 260.000000"
 preserveAspectRatio="xMidYMid meet">
<metadata>
Created by potrace 1.11, written by Peter Selinger 2001-2013
</metadata>
<g transform="translate(0.000000,260.000000) scale(0.100000,-0.100000)"
fill="#000000" stroke="none">
<path d="M12 2588 c-17 -17 -17 -2559 0 -2576 17 -17 2559 -17 2576 0 17 17
17 2559 0 2576 -17 17 -2559 17 -2576 0z m807 -1085 l43 -88 44 88 44 87 41 0
40 0 -25 -42 c-110 -193 -106 -183 -106 -279 l0 -89 -45 0 -45 0 0 87 0 86
-61 111 c-34 61 -64 114 -66 119 -2 4 18 7 44 7 l49 0 43 -87z m442 -34 l29
-31 0 26 c0 24 4 26 40 26 l40 0 0 -155 0 -155 -40 0 c-37 0 -40 2 -40 26 l0
27 -24 -26 c-64 -69 -178 -33 -206 64 -35 119 26 229 127 229 37 0 50 -5 74
-31z m380 0 l29 -31 0 26 c0 24 4 26 40 26 l40 0 0 -155 0 -155 -40 0 c-37 0
-40 2 -40 26 l0 27 -24 -26 c-67 -73 -178 -33 -207 73 -19 72 -5 137 41 182
33 33 44 38 85 38 40 0 51 -5 76 -31z"/>
<path d="M1161 1424 c-29 -37 -37 -90 -20 -138 30 -87 110 -85 136 3 32 111
-55 212 -116 135z"/>
<path d="M1541 1424 c-29 -37 -37 -90 -20 -138 30 -87 110 -85 136 3 32 111
-55 212 -116 135z"/>
</g>
</svg>
