<?xml version="1.0" encoding="iso-8859-1"?>
<!-- Generator: Adobe Illustrator 16.0.0, SVG Export Plug-In . SVG Version: 6.00 Build 0)  -->
<!DOCTYPE svg PUBLIC "-//W3C//DTD SVG 1.1//EN" "http://www.w3.org/Graphics/SVG/1.1/DTD/svg11.dtd">
<svg version="1.1" id="Capa_1" xmlns="http://www.w3.org/2000/svg" xmlns:xlink="http://www.w3.org/1999/xlink" x="0px" y="0px"
	 width="470.082px" height="470.082px" viewBox="0 0 470.082 470.082" style="enable-background:new 0 0 470.082 470.082;"
	 xml:space="preserve" fill="white">
<g>
	<g>
		<path d="M392.242,169.625l7.369,8.602c2.897-6.049,4.974-11.157,5.911-13.555c-2.191-8.502-8.227-27.016-19.411-29.892
			c-14.584-3.749-40.832,31.248-43.746,58.747c0,0-3.334,15.004,11.67,15.411c9.55,0.268,20.614-1.327,27.407-2.515
			c2.974-2.952,5.843-6.67,8.487-10.718l-11.737-2.446c-1.688-0.353-2.785-2.008-2.433-3.703c0.345-1.685,1.987-2.767,3.711-2.428
			l13.945,2.905c1.11-1.925,2.164-3.833,3.166-5.743l-9.093-10.609c-1.118-1.312-0.966-3.282,0.337-4.408
			C389.141,168.161,391.108,168.305,392.242,169.625z"/>
		<path d="M410.308,169.547c-2.28,5.566-6.765,15.817-12.644,25.583c-0.023,0.046-0.052,0.092-0.084,0.138
			c-2.653,4.408-5.599,8.602-8.725,12.259c1.351,2.544,4.064,6.6,8.725,9.229c3.711,2.102,7.077,3.114,9.466,3.597
			c10.752-10.964,19.872-31.991,23.015-39.782C427.171,177.208,420.703,171.419,410.308,169.547z"/>
		<path d="M436.488,181.377c-1.09,2.767-3.475,8.624-6.801,15.424c3.771,1.503,10.447,3.811,16.006,3.811
			c1.727,0,3.13,1.403,3.13,3.12c0,1.725-1.403,3.127-3.13,3.127c-6.885,0-14.771-2.813-18.852-4.47
			c-0.921,1.733-1.879,3.473-2.889,5.214c4.685,5.536,10.11,11.315,11.613,12.066c1.547,0.759,2.192,2.639,1.435,4.186
			c-0.545,1.104-1.655,1.749-2.813,1.749c-0.461,0-0.938-0.1-1.382-0.322c-2.821-1.381-8.568-7.742-12.319-12.083
			c-2.897,4.446-6.055,8.602-9.413,11.952c0.741,5.274,2.941,14.296,9.638,20.977c9.986,9.994,19.677,0,22.498-2.188
			c2.805-2.191,26.865-24.141,26.873-51.439C470.082,172.507,446.551,178.081,436.488,181.377z"/>
		<path d="M424.498,260.416l0.381-2.212l-2.048-0.946c-2.529-1.17-4.797-2.78-6.945-4.912c-3.702-3.711-6.576-8.22-8.769-13.806
			l-5.626,1.646c0.781,3.956,1.227,7.791,1.238,10.792c0.064,16.615-3.202,46.122-25.747,57.046
			c-10.612,5.146-26.626,8.211-42.828,8.211c-30.841,0-55.383-10.295-65.646-27.559c-22.097-37.146-14.611-58.625-14.543-58.817
			c0.581-1.44,7.397-14.19,66.78-17.654c4.944-0.293,9.514-0.499,13.793-0.646l4.593-0.152l-2.063-4.109
			c-2.882-5.719-2.309-11.76-1.932-14.082l0.576-3.521l-3.566,0.108c-7.129,0.199-14.326,0.505-21.628,1.028l-2.052,0.145
			c-23.944,1.695-37.129,2.631-53.106,9.782c-3.65,1.641-7.39,3.488-10.712,5.191c-5.556,2.867-13.832,6.071-18.063,6.999
			c-1.805,0.413-3.635,0.797-5.251,1.126c-2.054,0.423-6.037,0.415-8.077,0c-1.617-0.329-3.446-0.719-5.27-1.134
			c-4.222-0.936-12.489-4.132-18.056-6.999c-3.312-1.703-7.065-3.551-10.714-5.192c-15.976-7.151-29.158-8.087-53.13-9.788
			l-2.021-0.138c-39.007-2.813-76.137-0.936-106.498,5.32c-5.723,0.944-16.759,6.049-17.499,18.637
			c-0.134,2.246-0.046,6.41,0.038,10.189c0.05,2.278,0.104,4.354,0.074,5.52c-0.196,8.44,3.154,12.066,5.378,14.458
			c0.563,0.605,1.042,1.135,1.34,1.631c0.818,1.375,1.401,3.122,1.737,5.194c8.666,52.558,10.774,61.626,34.46,74.109
			c11.01,5.803,33.422,9.697,55.761,9.697c17.406,0,42.575-2.308,63.612-13.276c31.701-16.547,42.959-73.608,43.086-74.313
			c0.008-0.036,0.974-4.168,11.696-4.168l0.808-0.008c10.121,0,10.96,4.092,11.048,4.753c0.467,2.336,11.912,57.506,43.003,73.736
			c21.035,10.969,46.206,13.276,63.61,13.276c22.329,0,44.738-3.903,55.755-9.697C413.854,314.099,416.976,305.183,424.498,260.416z
			 M18.033,221.786c-3.956-0.583-6.901-2.805-6.578-4.967c0.323-2.146,3.783-3.435,7.74-2.851c3.947,0.589,6.891,2.813,6.576,4.975
			C25.45,221.097,21.98,222.377,18.033,221.786z M166.097,288.676c-10.273,17.264-34.817,27.559-65.66,27.559
			c-16.194,0-32.21-3.065-42.832-8.211C35.06,297.1,31.794,267.593,31.858,250.978c0.032-7.365,2.549-19.364,6.107-24.806
			c5.991-9.161,16.352-14.85,49.478-14.85c7.548,0,16.18,0.291,26.395,0.882c58.14,3.38,65.99,15.661,66.932,17.977
			C180.851,230.404,187.843,252.117,166.097,288.676z"/>
	</g>
</g>
<g>
</g>
<g>
</g>
<g>
</g>
<g>
</g>
<g>
</g>
<g>
</g>
<g>
</g>
<g>
</g>
<g>
</g>
<g>
</g>
<g>
</g>
<g>
</g>
<g>
</g>
<g>
</g>
<g>
</g>
</svg>
