<?xml version="1.0" encoding="iso-8859-1"?>
<!-- Generator: Adobe Illustrator 16.0.0, SVG Export Plug-In . SVG Version: 6.00 Build 0)  -->
<!DOCTYPE svg PUBLIC "-//W3C//DTD SVG 1.1//EN" "http://www.w3.org/Graphics/SVG/1.1/DTD/svg11.dtd">
<svg version="1.1" id="Capa_1" xmlns="http://www.w3.org/2000/svg" xmlns:xlink="http://www.w3.org/1999/xlink" x="0px" y="0px"
	 width="31.833px" height="31.833px" viewBox="0 0 31.833 31.833" style="enable-background:new 0 0 31.833 31.833;"
	 xml:space="preserve" fill="white">
<g>
	<g>
		<circle cx="13.572" cy="10.473" r="3.213"/>
		<ellipse cx="28.426" cy="3.684" rx="3.407" ry="3.511"/>
		<path d="M30.667,8.701C29.436,7.7,27.295,8.259,26.23,8.557c-0.977,0.375-2.644,0.747-4.629,0.882
			c-0.25-0.365-0.642-0.652-1.115-0.801V7.533h-1.582v1.13c-0.783,0.275-1.336,0.929-1.336,1.691c0,0.636,0.384,1.194,0.965,1.523
			v0.487h2.39v-0.48c0.323-0.181,0.583-0.433,0.754-0.728c1.904-0.177,4.521-0.37,4.511-0.101c-0.028,0.726-0.348,8.017-0.063,8.259
			l-0.583,5.399l0.516,5.312h-1.502v1.562h5.108V31.25v-1.225V19.992c0.601-0.117,1.06-0.436,1.139-1.092
			C31.049,16.833,32.04,9.818,30.667,8.701z"/>
		<path d="M3.799,26.232c0.329,0.057,0.665,0.108,1.005,0.158c0.035,0.006,0.07,0.012,0.106,0.016
			c1.574,0.23,3.226,0.396,4.732,0.451c0.09,0.002,0.177,0.004,0.267,0.008c0.19,0.004,0.378,0.008,0.563,0.01
			c0.053,0,0.108,0.002,0.161,0.002c0.066,0,0.128-0.002,0.193-0.003c0.105-0.001,0.209-0.002,0.311-0.005
			c0.128-0.002,0.253-0.008,0.377-0.012c0.1-0.004,0.199-0.01,0.296-0.015c0.118-0.008,0.233-0.017,0.348-0.026
			c0.094-0.008,0.188-0.015,0.278-0.023c0.11-0.012,0.215-0.025,0.319-0.039c0.086-0.012,0.172-0.021,0.254-0.035
			c0.102-0.018,0.196-0.036,0.292-0.056c0.074-0.015,0.151-0.028,0.222-0.046c0.095-0.021,0.181-0.049,0.268-0.073
			c0.061-0.019,0.125-0.034,0.183-0.054c0.09-0.031,0.169-0.066,0.249-0.103c0.042-0.021,0.091-0.034,0.13-0.056
			c0.113-0.059,0.216-0.119,0.302-0.188c0.045-0.035,0.088-0.078,0.13-0.129c0.017-0.02,0.032-0.046,0.049-0.068
			c0.023-0.032,0.048-0.064,0.071-0.104c0.019-0.031,0.035-0.068,0.053-0.102c0.02-0.037,0.039-0.072,0.058-0.112
			c0.018-0.038,0.034-0.083,0.051-0.125s0.034-0.082,0.051-0.127c0.016-0.045,0.03-0.095,0.046-0.144
			c0.016-0.047,0.031-0.095,0.047-0.146c0.014-0.049,0.026-0.104,0.04-0.154c0.015-0.056,0.029-0.108,0.043-0.167
			c0.013-0.052,0.023-0.107,0.035-0.16c0.015-0.063,0.028-0.125,0.041-0.19c0.011-0.054,0.02-0.109,0.029-0.163
			c0.013-0.071,0.026-0.143,0.038-0.216c0.009-0.054,0.017-0.107,0.024-0.161c0.013-0.08,0.024-0.16,0.036-0.242
			c0.007-0.052,0.013-0.105,0.019-0.156c0.012-0.09,0.023-0.179,0.033-0.271c0.006-0.048,0.01-0.097,0.016-0.146
			c0.01-0.1,0.021-0.199,0.03-0.302c0.004-0.043,0.007-0.086,0.011-0.129c0.01-0.108,0.019-0.219,0.027-0.33
			c0.003-0.04,0.006-0.081,0.008-0.122c0.009-0.117,0.018-0.234,0.024-0.354c0.002-0.032,0.003-0.064,0.005-0.096
			c0.007-0.131,0.014-0.261,0.021-0.391c0.001-0.025,0.002-0.052,0.003-0.078c0.006-0.138,0.012-0.275,0.017-0.414
			c0-0.02,0.001-0.04,0.002-0.06c0.004-0.146,0.008-0.289,0.012-0.435c0-0.006,0-0.01,0-0.015l0,0
			c0.037-1.716-0.022-3.437-0.119-4.597c0-0.001,0-0.001,0-0.001c-0.001-0.012-0.002-0.021-0.003-0.033
			c-0.01-0.111-0.02-0.217-0.029-0.317c-0.004-0.043-0.009-0.082-0.014-0.122c-0.007-0.066-0.015-0.13-0.021-0.19
			c-0.006-0.039-0.01-0.075-0.015-0.111c-0.008-0.058-0.016-0.111-0.024-0.162c-0.004-0.028-0.008-0.058-0.013-0.083
			c-0.013-0.071-0.025-0.138-0.038-0.19c-0.118-0.084-0.252-0.15-0.395-0.206c-0.007-0.003-0.013-0.007-0.02-0.009
			c-0.144-0.055-0.297-0.097-0.456-0.13c-0.004-0.001-0.007-0.002-0.011-0.003c-0.001,0-0.002,0-0.003,0
			c-1.105-0.223-2.529,0.021-3.143,0.021c-0.282,0.15-0.554,1.444-0.985,2.875c-0.056,0.184-0.113,0.367-0.174,0.553
			c-0.001,0.004-0.003,0.009-0.004,0.014c-0.127,0.385-0.267,0.771-0.423,1.139l0,0c-0.077,0.183-0.158,0.359-0.244,0.529
			c-0.002,0.006-0.005,0.01-0.008,0.017c-0.086,0.17-0.176,0.332-0.271,0.485c-0.001,0.002-0.002,0.004-0.003,0.006
			c-0.29,0.469-0.623,0.852-1.011,1.084c0,0,0,0,0.001,0c-0.305,0.183-0.642,0.274-1.02,0.24
			C3.765,20.667-0.396,25.521,3.799,26.232z"/>
		<path d="M16.283,27.518l0.01,0.003l2.04-9.217l-2.06-0.456l-0.151,0.69c0.049,3.181-0.184,7.113-1.221,7.923
			c-0.693,0.541-2.129,0.815-4.268,0.815c-1.117,0-2.422-0.08-3.789-0.225v0.523h3.473l-0.44,2.478H6.744L5.673,31.66h12.05
			l-1.07-1.606h-3.333l-0.44-2.478h3.405L16.283,27.518L16.283,27.518z"/>
		<path d="M7.315,20.748c0.04,0.003,0.08,0.005,0.119,0.005c1.031,0,1.752-1.323,2.271-2.749c-0.776,0.896-1.651,1.585-2.487,1.531
			C6.211,19.549,6.037,20.375,7.315,20.748z"/>
		<path d="M3.731,26.627c-0.604-0.103-1.035-0.283-1.345-0.499c-0.582,0.919-1.104,1.773-1.431,2.312H0v1.45h4.675v-1.45H4.599
			l1.061-1.526C5.019,26.832,4.373,26.736,3.731,26.627z"/>
		<path d="M16.785,8.106L16.9,8.215c0,0,1.49-1.973,2.242-1.639c0.037,0.072,0.022,0.452,0.017,0.598h-0.112v0.289h1.316V7.174
			h-0.121V6.628l0.673-0.395h0.712V6.028h-0.648L20.23,5.625l-0.002,0.002l-2.941-1.049L17.062,5.15l0.731,0.373V6.03L16.785,8.106z
			 M20.242,5.865l0.467,0.252L20.242,6.39V5.865z"/>
	</g>
</g>
<g>
</g>
<g>
</g>
<g>
</g>
<g>
</g>
<g>
</g>
<g>
</g>
<g>
</g>
<g>
</g>
<g>
</g>
<g>
</g>
<g>
</g>
<g>
</g>
<g>
</g>
<g>
</g>
<g>
</g>
</svg>
