<?xml version="1.0" encoding="iso-8859-1"?>
<!-- Generator: Adobe Illustrator 18.0.0, SVG Export Plug-In . SVG Version: 6.00 Build 0)  -->
<!DOCTYPE svg PUBLIC "-//W3C//DTD SVG 1.1//EN" "http://www.w3.org/Graphics/SVG/1.1/DTD/svg11.dtd">
<svg version="1.1" id="Capa_1" xmlns="http://www.w3.org/2000/svg" xmlns:xlink="http://www.w3.org/1999/xlink" x="0px" y="0px"
	 viewBox="0 0 451.381 451.381" style="enable-background:new 0 0 451.381 451.381;" xml:space="preserve" fill="white">
<g id="XMLID_76_">
	<path id="XMLID_88_" d="M170.805,327.424l-1.225-2.689v6.658c0,5.982,4.627,10.739,10.465,11.283v-4.772
		C176.138,335.475,172.858,331.928,170.805,327.424z"/>
	<path id="XMLID_87_" d="M218.7,185.448c13.667,0,24.742-11.076,24.742-24.742c0-13.676-11.075-24.746-24.742-24.746
		c-13.666,0-24.744,11.07-24.744,24.746C193.956,174.371,205.034,185.448,218.7,185.448z"/>
	<path id="XMLID_86_" d="M328.341,205.803c16.439,0,29.752-13.322,29.752-29.746c0-16.449-13.313-29.755-29.752-29.755
		c-16.426,0-29.754,13.306-29.754,29.755C298.587,192.481,311.915,205.803,328.341,205.803z"/>
	<path id="XMLID_85_" d="M255.241,157.678l-3.677,8.067c-0.949,6.189-3.601,11.767-7.462,16.348
		c-0.077,0.092-0.154,0.191-0.245,0.283c0.046,0.008,0.077,0.008,0.106,0.016c6.359,1.294,11.478,5.892,13.607,10.618l16.409,35.92
		l6.635-14.555c3.386-7.432,10.066-12.273,17.526-13.69c-5.515-6.749-8.962-15.253-8.962-24.628c0-9.416,3.477-17.942,9.024-24.706
		c-45.015,0-1.304,0-30.857,0C261.952,151.351,257.433,152.852,255.241,157.678z"/>
	<path id="XMLID_84_" d="M257.355,341.282v2.03c1.977,4.436,6.39,7.554,11.567,7.554c7.018,0,12.702-5.684,12.702-12.701v-9.814
		C277.242,336.893,268.341,342.523,257.355,341.282z"/>
	<path id="XMLID_83_" d="M286.268,97.09c-13.667,0-24.759,11.068-24.759,24.751c0,13.659,11.092,24.737,24.759,24.737
		c13.666,0,24.745-11.078,24.745-24.737C311.013,108.159,299.934,97.09,286.268,97.09z"/>
	<path id="XMLID_82_" d="M171.097,212.107l8.732-19.144c2.391-5.301,7.141-9.039,12.701-10.441v-1.363
		c-3.998-5.102-6.51-11.346-6.971-18.202c-3.141-1.003-20.623-0.612-24.314-0.612c1.608,4.281,2.604,8.871,2.604,13.713
		c0,9.375-3.446,17.871-8.963,24.621C161.535,201.942,167.464,206.002,171.097,212.107z"/>
	<path id="XMLID_81_" d="M165.381,158.032c12.364,0,22.386-10.021,22.386-22.394c0-12.372-10.021-22.392-22.386-22.392
		c-12.364,0-22.399,10.02-22.399,22.392c0,2.314,0.46,4.496,1.104,6.596c6.082,3.502,11.077,8.543,14.54,14.647
		C160.77,157.564,163.007,158.032,165.381,158.032z"/>
	<path id="XMLID_80_" d="M202.873,339.389c-5.838,2.66-9.729,2.399-14.203,1.603v36.042c0,7.018,5.684,12.702,12.702,12.702
		c7.016,0,12.701-5.684,12.701-12.702v-48.284C211.667,333.27,207.882,337.099,202.873,339.389z"/>
	<path id="XMLID_79_" d="M238.189,307.323l10.327-22.63l0.183-0.398v-39.039l8.917,19.52l11.614-25.48l-19.505-42.753
		c-2.176-4.797-6.726-6.321-12.104-6.321c-96.723,0,51.388,0-37.859,0c-5.376,0-9.896,1.517-12.088,6.321l-11.706,25.631
		l11.631,25.473l1.102-2.405v4.818l10.678,23.388l14.694,32.198v-4.307h9.254v75.695c0,7.018,5.684,12.702,12.701,12.702
		c7.017,0,12.701-5.684,12.701-12.702v-38.479C237.653,332.549,232.872,318.967,238.189,307.323z"/>
	<path id="XMLID_78_" d="M124.688,146.302c-16.441,0-29.755,13.306-29.755,29.755c0,16.424,13.313,29.746,29.755,29.746
		c16.424,0,29.754-13.322,29.754-29.746C154.442,159.608,141.112,146.302,124.688,146.302z"/>
	<path id="XMLID_77_" d="M429.735,165.967l-5.514-18.929c2.19-5.455,0.215-11.36-4.291-14.74L382.669,4.25
		c-0.918-3.11-4.136-4.949-7.293-4c-3.125,0.904-4.918,4.167-4.014,7.294l1.931,6.634C267.942-17.408,172.951,51.264,67.386,17.555
		L69.73,7.2c0.721-3.173-1.256-6.32-4.429-7.04c-3.279-0.743-6.328,1.27-7.032,4.436L21.559,166.312
		c-0.72,3.171,1.257,6.319,4.43,7.04c3.187,0.712,6.327-1.279,7.031-4.436l1.732-7.6l18.844,45.023l35.026,26.236
		c0,97.384-0.062,62.549-0.062,203.538c0,8.435,6.849,15.267,15.275,15.267c8.427,0,15.274-6.832,15.274-15.267v-90.993h11.139
		v90.993c0,8.435,6.85,15.267,15.275,15.267c8.427,0,15.275-6.832,15.275-15.267c0-106.943-0.046-158.331-0.046-158.331
		l20.485,44.875c2.926,6.404,10.479,9.193,16.869,6.29c6.389-2.918,9.207-10.465,6.296-16.861l-42.425-92.946
		c-2.65-5.808-8.074-7.616-14.539-7.616c-60.75,0,51.709,0-44.479,0l-28.559-21.395L52.31,137.378
		c-1.854-4.429-5.961-7.071-10.419-7.554l6.864-30.223c66.77,20.24,145.416,2.016,221.119-6.664
		c9.085-1.035,18.094-1.893,27.072-2.567c35.192-2.642,69.268-1.617,100.768,7.729l9.516,32.68c-2.818,1.28-5.225,3.518-6.512,6.598
		l-22.094,52.751c-1.47,1.096-27.057,20.263-28.559,21.395c-38.12,0-2.129,0-44.478,0c-6.467,0-11.891,1.809-14.54,7.616
		l-42.426,92.946c-2.91,6.396-0.092,13.943,6.298,16.861c6.389,2.903,13.941,0.114,16.869-6.29l20.483-44.875
		c0,0-0.045,122.417-0.045,158.331c0,8.435,6.848,15.267,15.275,15.267c8.426,0,15.275-6.832,15.275-15.267
		c0-108.047,0,18.937,0-90.993c10.28,0-11.644,0,11.139,0v90.993c0,8.435,6.848,15.267,15.275,15.267
		c8.428,0,15.275-6.832,15.275-15.267c0-148.335-0.062-55.196-0.062-203.538l35.024-26.236l17.574-41.974l1.424,4.895
		c0.906,3.109,4.153,4.91,7.294,3.998C428.849,172.355,430.642,169.092,429.735,165.967z"/>
</g>
<g>
</g>
<g>
</g>
<g>
</g>
<g>
</g>
<g>
</g>
<g>
</g>
<g>
</g>
<g>
</g>
<g>
</g>
<g>
</g>
<g>
</g>
<g>
</g>
<g>
</g>
<g>
</g>
<g>
</g>
</svg>
