<?xml version="1.0" encoding="utf-8"?><!DOCTYPE svg PUBLIC "-//W3C//DTD SVG 1.1//EN" "http://www.w3.org/Graphics/SVG/1.1/DTD/svg11.dtd"><svg version="1.1" xmlns="http://www.w3.org/2000/svg" xmlns:xlink="http://www.w3.org/1999/xlink" x="0px" y="0px" viewBox="0 0 100 125" enable-background="new 0 0 100 100" xml:space="preserve" fill="white"><path d="M35.094,64.043c-0.568-0.244-1.102-0.463-1.58-0.662c-0.637-0.267-1.181-0.492-1.587-0.661
	c-1.69-0.7-2.855-1.903-3.455-3.517c-0.041-0.105-0.141-0.296-0.301-0.111C21.475,66.775,8.361,82.105,5.53,85.312
	c-3.337,3.776,1.043,8.545,1.684,7.83c0.544-0.611,19.496-20.09,27.999-28.731C35.288,64.335,35.347,64.15,35.094,64.043z"/><path d="M52.041,19.295l2.443,0.77c0.537,0.168,1.078,0.25,1.611,0.25c2.273,0,4.383-1.46,5.102-3.743l2.109-6.582
	c0.889-2.816-0.676-5.821-3.492-6.711l-2.446-0.771C56.834,2.34,56.292,2.26,55.759,2.26c-2.272,0-4.383,1.459-5.103,3.742
	l-2.108,6.582C47.659,15.401,49.225,18.406,52.041,19.295z"/><path d="M78.979,25.296c-0.432,0.583-0.873,1.189-1.319,1.813c-0.03,0.042-0.075,0.145,0.053,0.239
	c0.129,0.094,0.429,0.305,0.429,0.305c0.229,0.18,0.5,0.266,0.77,0.266c0.074,0,0.148-0.011,0.224-0.024
	c0.289-0.052,0.56-0.202,0.755-0.451c0.161-0.204,0.246-0.441,0.264-0.682c0.027-0.397-0.137-0.801-0.473-1.064
	c0,0-0.322-0.276-0.457-0.394C79.084,25.186,79.009,25.256,78.979,25.296z"/><path d="M66.562,20.168c0.508,0.398,1.11,0.593,1.709,0.593c0.305,0,0.604-0.05,0.893-0.148c0.277-0.094,0.541-0.234,0.781-0.416
	c0.186-0.141,0.359-0.305,0.51-0.497c0.088-0.113,0.163-0.23,0.23-0.351c0.151-0.269,0.256-0.552,0.312-0.843
	c0.187-0.985-0.167-2.037-1.011-2.698c-0.508-0.398-1.11-0.592-1.709-0.592c-0.822,0-1.637,0.364-2.182,1.062
	C65.148,17.48,65.359,19.223,66.562,20.168z"/><path d="M54.854,38.21c0.195,0.066,0.39,0.133,0.574,0.195c0.199,0.069,0.389,0.135,0.574,0.198
	c0.632,0.217,1.168,0.402,1.571,0.543c1.952,0.684,3.833,1.365,5.659,1.365c1.979,0,3.895-0.798,5.767-3.255
	c1.831-2.403,4.401-6.204,6.903-9.736c0.897-1.267,1.785-2.5,2.629-3.619c0.123-0.163,0.226-0.327,0.318-0.49
	c1.127-1.991,0.112-3.947-1.553-3.948c-0.547,0-1.167,0.218-1.802,0.711c-0.261,0.202-0.522,0.446-0.787,0.749
	c-3.002,3.451-8.968,9.384-9.944,10.562c-0.481,0.582-0.986,0.872-1.617,0.872c-0.646,0-1.422-0.306-2.438-0.918l-1.196-0.655
	l-0.188-0.102c0,0-0.006,0.009-0.371-0.203c-0.364-0.211-0.555-0.479-0.533-0.817c0.196-3.31-1.365-6.381-4.663-8.01l-0.894-0.441
	c-1.264-0.624-2.536-0.914-3.77-0.914c-3.398,0.001-6.488,2.203-8.207,5.685c0,0-7.35,16.781-9.878,23.155
	c-0.322,0.814-0.593,1.578-0.813,2.296l-0.003,0.002c-0.376,1.066-1.103,3.271-0.994,5.414c0.007,0.146,0.017,0.291,0.032,0.436
	c0.02,0.17,0.044,0.338,0.075,0.505c0.286,1.58,1.142,3.024,3.077,3.827c0.408,0.169,0.952,0.396,1.591,0.663
	c0.69,0.288,1.494,0.625,2.363,0.989c0.042,0.018,0.083,0.035,0.125,0.053c5.134,2.15,12.454,5.232,12.454,5.232
	c2.289,1.197,2.915,2.197,2.366,3.791c-0.55,1.594-3.31,10.283-4.841,15.086c-1.324,4.161,2.952,6.668,4.311,6.668
	c0.21,0,0.352-0.062,0.391-0.184c0.297-0.914,5.613-14.796,7.996-20.891c2.385-6.094-1.095-8.824-4.762-11.836
	c-1.459-1.196-4.573-3.808-7.792-6.516c-0.154-0.129-0.302-0.265-0.462-0.388c-0.473-0.367-0.317-0.63-0.243-0.753
	C48.44,49.256,52.35,42.532,54.854,38.21z"/><path d="M61.104,29.167c-0.097-0.06-0.201-0.085-0.307-0.085c-0.201,0-0.4,0.103-0.512,0.289c-0.084,0.138-0.104,0.297-0.068,0.444
	c0.036,0.15,0.129,0.288,0.271,0.374c0.979,0.589,1.761,1.023,2.51,1.023c0.535,0,1.054-0.224,1.615-0.774
	c1.006-0.986,9.222-9.827,9.57-10.203c0.157-0.169,0.19-0.403,0.116-0.606c-0.03-0.087-0.075-0.168-0.147-0.236
	c-0.113-0.106-0.26-0.158-0.405-0.158c-0.159,0-0.317,0.062-0.437,0.19c-0.009,0.01-0.115,0.127-0.304,0.326
	c-0.091,0.097-0.198,0.001-0.198,0.001l-0.145-0.124c-0.152-0.12-0.348-0.171-0.555-0.171c-0.053,0-0.105,0.006-0.16,0.011
	c-0.276,0.032-0.566,0.142-0.815,0.296c-0.194,0.12-0.364,0.263-0.483,0.415c-0.086,0.109-0.158,0.247-0.221,0.393
	c-0.109,0.261-0.172,0.558-0.17,0.842c0.002,0.319,0.081,0.616,0.279,0.806c0.018,0.016,0.091,0.106,0.001,0.181
	c-0.052,0.052-6.144,6.58-6.763,7.186c-0.274,0.27-0.469,0.438-0.771,0.438C62.643,30.024,62.12,29.778,61.104,29.167z"/><path d="M77.663,91.825c-0.329,0-0.597,0.268-0.597,0.597s0.268,0.596,0.597,0.596c11.323,0,15.705,1.354,16.132,2.047
	c-0.424,0.679-4.743,2.004-15.895,2.004c-5.526,0-9.18-1.629-10.854-4.846C61.341,81.26,78.664,55.023,84.109,47.245
	c7-9.999,2.455-15.382-2.916-19.327c-0.047-0.035-0.098-0.06-0.15-0.079c-0.064-0.023-0.133-0.037-0.199-0.037
	c-0.185,0-0.363,0.083-0.48,0.242c-0.137,0.187-0.143,0.424-0.047,0.617c0.041,0.083,0.096,0.158,0.174,0.216
	c5.953,4.375,8.684,9.057,2.645,17.684c-5.542,7.919-23.16,34.654-17.144,46.21c1.897,3.641,5.903,5.486,11.911,5.486
	c5.143,0,9.459-0.283,12.488-0.82C94.523,96.706,95,95.732,95,95.062C95,92.061,81.73,91.825,77.663,91.825z"/></svg>