<?xml version="1.0" encoding="utf-8"?>
<!-- Generator: Adobe Illustrator 15.0.2, SVG Export Plug-In . SVG Version: 6.00 Build 0)  -->
<!DOCTYPE svg PUBLIC "-//W3C//DTD SVG 1.1//EN" "http://www.w3.org/Graphics/SVG/1.1/DTD/svg11.dtd">
<svg version="1.1" id="Layer_1" xmlns="http://www.w3.org/2000/svg" xmlns:xlink="http://www.w3.org/1999/xlink" x="0px" y="0px"
	 width="512px" height="512px" viewBox="0 0 512 512" enable-background="new 0 0 512 512" xml:space="preserve">
<g>
	<path d="M481.083,0H28.451C15.003,5.576,4.538,16.854,0,30.833v446.528C6.521,497.458,25.33,512,47.552,512h414.427
		C489.611,512,512,489.549,512,461.854V46.344C512,25.431,499.229,7.524,481.083,0z M383.056,187.625h-9.958
		c-3.695,0-7.959,4.851-7.959,8.271v123.993c0,3.431,4.264,8.556,7.959,8.556h9.958v28.792h-89.278v-28.792h17.91V198.174h-0.854
		l-44.069,159.062h-34.125l-43.503-159.062h-0.854v130.271h18.768v28.792H131.42v-28.792h9.663c3.983,0,8.25-5.125,8.25-8.556
		V195.896c0-3.42-4.267-8.271-8.25-8.271h-9.663v-29.931h94.399l30.989,115.736h0.854l31.274-115.736h94.118V187.625z"/>
</g>
</svg>
